# xmcd CD database file
#
# Track frame offsets:
#	150
#	11839
#	25508
#	36955
#	49456
#	63338
#	76046
#	95016
#	108664
#	121687
#	137437
#	155863
#	169417
#	185799
#
# Disc length: 2617 seconds
#
# Revision: 0
# Processed by: cddbd v1.5.2PL0 Copyright (c) Steve Scherf et al.
# Submitted via: CDex 1.51
#
DISCID=bd0a370e
DTITLE=Various Artist - Smooth CHristmastime Jazz
DYEAR=2009
DGENRE=Jazz
TTITLE0=Kurt Bowett Trio - Winter Wonderland
TTITLE1=Baby Colby - Let it snow
TTITLE2=Aiden Carter - Sleigh ride
TTITLE3=Sean Pratt - Snow falls over the trees
TTITLE4=Ramsey Gold - Have yourself a merry little christmas
TTITLE5=Adrien Wolcox - Santa Claus is coming to town
TTITLE6=Tyler Broughton - Sweeter the bells never sound
TTITLE7=Brian Berdwell - Silens Night
TTITLE8=Candice Brown - Rudolph the red nosed reindeer
TTITLE9=Dane Emerson - Ring little bell
TTITLE10=Mateo Flowers - What child is this
TTITLE11=Joe Donelli O Christmas tree
TTITLE12=Stephen Sanburne - O very blessed
TTITLE13=Cody Hobart - We wish you a merry christmas
EXTD=YEAR: 2009
EXTT0=
EXTT1=
EXTT2=
EXTT3=
EXTT4=
EXTT5=
EXTT6=
EXTT7=
EXTT8=
EXTT9=
EXTT10=
EXTT11=
EXTT12=
EXTT13=
PLAYORDER=
